<?xml version="1.0" standalone="no"?>
<!DOCTYPE svg PUBLIC "-//W3C//DTD SVG 20010904//EN"
 "http://www.w3.org/TR/2001/REC-SVG-20010904/DTD/svg10.dtd">
<svg version="1.0" xmlns="http://www.w3.org/2000/svg"
 width="400.000000pt" height="90.000000pt" viewBox="0 0 400.000000 90.000000"
 preserveAspectRatio="xMidYMid meet">

<g transform="translate(0.000000,90.000000) scale(0.100000,-0.100000)"
fill="#000000" stroke="none">
<path d="M135 881 c-53 -14 -95 -41 -115 -74 -19 -30 -20 -53 -20 -409 l0
-378 55 0 55 0 0 150 c0 135 2 152 19 169 23 23 100 46 112 34 4 -4 36 -84 72
-178 l64 -170 57 -3 c31 -2 56 1 56 5 0 4 -32 92 -71 195 l-71 186 46 44 46
45 0 142 c0 167 -7 188 -75 221 -49 24 -176 36 -230 21z m178 -109 c20 -20 22
-33 22 -127 0 -127 -4 -132 -126 -169 -47 -14 -88 -26 -92 -26 -13 0 -8 295 6
312 23 29 52 39 110 35 43 -2 63 -9 80 -25z"/>
<path d="M650 879 c-54 -16 -98 -55 -110 -97 -8 -24 -10 -146 -8 -359 l3 -322
30 -31 c75 -78 290 -82 371 -5 l34 32 0 347 c0 389 2 379 -74 418 -48 24 -189
34 -246 17z m193 -107 c21 -22 22 -29 25 -297 3 -300 -2 -344 -43 -363 -43
-20 -128 -15 -159 9 l-26 20 0 300 c0 193 4 307 11 320 15 29 47 39 112 36 44
-3 63 -9 80 -25z"/>
<path d="M1050 841 l0 -41 174 0 c111 0 177 -4 181 -10 4 -6 -64 -138 -151
-293 -87 -155 -170 -305 -186 -333 -34 -62 -37 -107 -6 -128 19 -13 60 -16
245 -16 l223 0 0 40 0 40 -184 0 c-102 0 -187 3 -190 8 -2 4 81 159 185 345
104 185 189 345 189 356 0 10 -9 29 -19 42 -19 24 -22 24 -240 27 l-221 3 0
-40z"/>
<path d="M1695 873 c-32 -9 -65 -34 -81 -64 -11 -23 -14 -91 -14 -367 0 -329
1 -340 21 -366 39 -50 65 -56 229 -56 l150 0 0 40 0 40 -124 0 c-173 0 -170
-3 -174 169 l-4 131 121 0 121 0 0 45 0 44 -117 3 -118 3 -3 115 c-4 180 5
190 183 190 l115 0 0 40 0 40 -142 -1 c-79 -1 -152 -4 -163 -6z"/>
<path d="M2060 840 l0 -39 83 -3 82 -3 3 -388 2 -387 50 0 50 0 2 387 3 388
83 3 82 3 0 39 0 40 -220 0 -220 0 0 -40z"/>
<path d="M2567 873 c-4 -3 -7 -197 -7 -430 l0 -423 55 0 55 0 0 144 c0 126 2
146 19 168 17 21 77 48 108 48 5 0 40 -81 78 -180 l68 -180 58 0 c57 0 58 1
50 23 -98 254 -141 367 -141 371 0 2 16 13 35 25 57 33 65 65 65 266 l0 175
-55 0 -55 0 0 -168 c0 -119 -4 -173 -12 -185 -12 -16 -175 -77 -205 -77 -10 0
-13 44 -13 215 l0 215 -48 0 c-27 0 -52 -3 -55 -7z"/>
<path d="M3185 866 c-17 -7 -43 -28 -58 -45 l-27 -33 0 -336 c0 -317 1 -339
20 -369 33 -55 61 -63 230 -63 l150 0 0 40 0 40 -125 0 c-169 0 -165 -4 -165
170 l0 130 115 0 115 0 0 45 0 45 -115 0 -115 0 0 134 c0 133 0 135 26 155 24
19 40 21 145 21 l119 0 0 40 0 40 -142 0 c-96 -1 -153 -5 -173 -14z"/>
<path d="M3560 450 l0 -430 168 0 c189 0 221 9 254 71 16 31 18 63 18 360 0
322 0 326 -23 360 -40 61 -71 69 -254 69 l-163 0 0 -430z m311 321 c18 -22 19
-43 19 -324 0 -366 7 -347 -132 -347 l-88 0 0 351 0 351 91 -4 c81 -3 93 -6
110 -27z"/>
</g>
</svg>
