<svg width="512" height="512" viewBox="0 0 512 512" fill="none" xmlns="http://www.w3.org/2000/svg" xmlns:xlink="http://www.w3.org/1999/xlink" class=""><rect id="r4" width="512" height="512" x="0" y="0" rx="128" fill="url(#r5)" stroke="#FFFFFF" stroke-width="0" stroke-opacity="100%" paint-order="stroke"></rect><clipPath id="clip"><use xlink:href="#r4"></use></clipPath><defs><linearGradient id="r5" gradientUnits="userSpaceOnUse" gradientTransform="rotate(45)" style="transform-origin: center center;"><stop stop-color="#FADA5B"></stop><stop offset="1" stop-color="#C7A51D"></stop></linearGradient><radialGradient id="r6" cx="0" cy="0" r="1" gradientUnits="userSpaceOnUse" gradientTransform="translate(256) rotate(90) scale(512)"><stop stop-color="white"></stop><stop offset="1" stop-color="white" stop-opacity="0"></stop></radialGradient></defs>

<svg xmlns="http://www.w3.org/2000/svg" version="1.1" viewBox="0.00 0.00 1448.00 1448.00" width="500" height="500" x="6" y="6" alignment-baseline="middle" style="color: rgb(255, 255, 255);">
<g stroke-width="2.00" fill="none" stroke-linecap="butt">
<path stroke="#e2e2e2" vector-effect="non-scaling-stroke" d="
  M 1294.81 723.75
  L 1294.45 724.15
  Q 1294.36 724.24 1294.24 724.24
  L 724.03 723.77"></path>
<path stroke="#dedede" vector-effect="non-scaling-stroke" d="
  M 724.03 723.77
  Q 585.90 485.66 447.53 247.68
  C 444.68 242.79 442.25 236.63 438.42 232.48"></path>
<path stroke="#d7d7d7" vector-effect="non-scaling-stroke" d="
  M 724.03 723.77
  Q 724.11 724.26 723.88 724.63
  C 716.66 736.15 709.11 749.90 703.28 759.76
  Q 695.74 772.51 688.35 785.36
  Q 669.39 818.35 650.09 851.15
  Q 640.01 868.27 630.30 885.60
  Q 628.62 888.60 626.89 891.56
  Q 605.57 928.25 584.30 964.97
  C 567.82 993.43 551.03 1021.68 534.84 1050.31
  Q 529.57 1059.63 524.15 1068.87
  Q 506.41 1099.08 488.74 1129.33
  C 481.13 1142.36 472.74 1157.35 464.46 1171.23
  C 457.28 1183.27 449.45 1197.71 441.15 1210.55
  Q 440.43 1211.66 439.75 1213.08
  Q 439.16 1214.27 438.43 1215.66"></path>
</g>
<path fill="#e8e8e8" d="
  M 1294.81 723.75
  L 1294.45 724.15
  Q 1294.36 724.24 1294.24 724.24
  L 724.03 723.77
  Q 585.90 485.66 447.53 247.68
  C 444.68 242.79 442.25 236.63 438.42 232.48
  L 1008.65 232.47
  A 1.98 1.97 76.5 0 1 1010.41 233.55
  C 1013.68 239.95 1018.59 247.76 1021.19 252.24
  C 1111.82 407.79 1202.33 563.42 1292.62 719.16
  Q 1293.92 721.40 1294.81 723.75
  Z"></path>
<path fill="#d3d3d3" d="
  M 438.42 232.48
  C 442.25 236.63 444.68 242.79 447.53 247.68
  Q 585.90 485.66 724.03 723.77
  Q 724.11 724.26 723.88 724.63
  C 716.66 736.15 709.11 749.90 703.28 759.76
  Q 695.74 772.51 688.35 785.36
  Q 669.39 818.35 650.09 851.15
  Q 640.01 868.27 630.30 885.60
  Q 628.62 888.60 626.89 891.56
  Q 605.57 928.25 584.30 964.97
  C 567.82 993.43 551.03 1021.68 534.84 1050.31
  Q 529.57 1059.63 524.15 1068.87
  Q 506.41 1099.08 488.74 1129.33
  C 481.13 1142.36 472.74 1157.35 464.46 1171.23
  C 457.28 1183.27 449.45 1197.71 441.15 1210.55
  Q 440.43 1211.66 439.75 1213.08
  Q 439.16 1214.27 438.43 1215.66
  L 154.21 725.71
  Q 153.27 724.09 154.21 722.47
  L 438.42 232.48
  Z"></path>
<path fill="#dbdbdb" d="
  M 724.03 723.77
  L 1294.24 724.24
  Q 1294.36 724.24 1294.45 724.15
  L 1294.81 723.75
  Q 1295.20 724.30 1294.95 724.73
  C 1199.79 887.98 1104.90 1051.46 1010.05 1214.85
  A 1.66 1.66 0.0 0 1 1008.61 1215.68
  L 438.43 1215.66
  Q 439.16 1214.27 439.75 1213.08
  Q 440.43 1211.66 441.15 1210.55
  C 449.45 1197.71 457.28 1183.27 464.46 1171.23
  C 472.74 1157.35 481.13 1142.36 488.74 1129.33
  Q 506.41 1099.08 524.15 1068.87
  Q 529.57 1059.63 534.84 1050.31
  C 551.03 1021.68 567.82 993.43 584.30 964.97
  Q 605.57 928.25 626.89 891.56
  Q 628.62 888.60 630.30 885.60
  Q 640.01 868.27 650.09 851.15
  Q 669.39 818.35 688.35 785.36
  Q 695.74 772.51 703.28 759.76
  C 709.11 749.90 716.66 736.15 723.88 724.63
  Q 724.11 724.26 724.03 723.77
  Z"></path>
</svg>
</svg>