<?xml version="1.0" encoding="UTF-8" standalone="no"?>
<!DOCTYPE svg PUBLIC "-//W3C//DTD SVG 1.1//EN" "http://www.w3.org/Graphics/SVG/1.1/DTD/svg11.dtd">
<svg xmlns="http://www.w3.org/2000/svg" version="1.1" viewBox="0.00 0.00 1448.00 1448.00">
<g stroke-width="2.00" fill="none" stroke-linecap="butt">
<path stroke="#edcc35" vector-effect="non-scaling-stroke" d="
  M 1294.85 724.85
  Q 1290.46 724.07 1286.25 724.07
  Q 1009.42 724.03 732.59 724.01
  Q 731.89 724.01 728.43 724.18
  Q 726.26 724.29 724.26 724.08"
/>
<path stroke="#e8c639" vector-effect="non-scaling-stroke" d="
  M 724.26 724.08
  Q 714.51 707.46 705.14 691.32
  Q 573.48 464.37 441.82 237.43
  Q 440.46 235.10 439.64 232.60"
/>
<path stroke="#e1be21" vector-effect="non-scaling-stroke" d="
  M 724.26 724.08
  Q 722.66 726.82 720.84 729.72
  Q 718.75 733.04 717.41 735.38
  Q 696.35 772.03 675.17 808.60
  Q 668.43 820.24 661.68 831.87
  Q 605.50 928.57 549.36 1025.30
  Q 519.23 1077.21 488.99 1129.06
  C 481.16 1142.48 472.71 1157.52 464.32 1171.64
  C 457.03 1183.92 449.59 1197.40 441.88 1210.11
  C 440.67 1212.10 439.17 1212.50 437.34 1213.66"
/>
</g>
<path fill="#f4d44d" d="
  M 1294.85 724.85
  Q 1290.46 724.07 1286.25 724.07
  Q 1009.42 724.03 732.59 724.01
  Q 731.89 724.01 728.43 724.18
  Q 726.26 724.29 724.26 724.08
  Q 714.51 707.46 705.14 691.32
  Q 573.48 464.37 441.82 237.43
  Q 440.46 235.10 439.64 232.60
  L 1008.81 232.45
  A 1.55 1.54 -14.5 0 1 1010.16 233.24
  Q 1016.08 243.83 1022.27 254.42
  C 1084.54 360.99 1146.61 467.69 1208.64 574.41
  Q 1263.08 668.06 1294.23 722.03
  Q 1295.04 723.43 1294.85 724.85
  Z"
/>
<path fill="#dcb824" d="
  M 439.64 232.60
  Q 440.46 235.10 441.82 237.43
  Q 573.48 464.37 705.14 691.32
  Q 714.51 707.46 724.26 724.08
  Q 722.66 726.82 720.84 729.72
  Q 718.75 733.04 717.41 735.38
  Q 696.35 772.03 675.17 808.60
  Q 668.43 820.24 661.68 831.87
  Q 605.50 928.57 549.36 1025.30
  Q 519.23 1077.21 488.99 1129.06
  C 481.16 1142.48 472.71 1157.52 464.32 1171.64
  C 457.03 1183.92 449.59 1197.40 441.88 1210.11
  C 440.67 1212.10 439.17 1212.50 437.34 1213.66
  C 419.15 1182.27 400.71 1150.93 382.49 1119.48
  Q 269.12 923.68 155.57 727.99
  C 154.13 725.50 153.02 724.42 154.63 721.65
  Q 296.30 477.50 437.92 233.34
  Q 438.17 232.90 438.64 232.75
  Q 439.18 232.57 439.64 232.60
  Z"
/>
<path fill="#e5c41d" d="
  M 724.26 724.08
  Q 726.26 724.29 728.43 724.18
  Q 731.89 724.01 732.59 724.01
  Q 1009.42 724.03 1286.25 724.07
  Q 1290.46 724.07 1294.85 724.85
  L 1009.87 1215.11
  A 1.12 1.11 14.7 0 1 1008.90 1215.67
  Q 724.26 1215.79 439.50 1215.67
  Q 437.76 1215.67 437.34 1213.66
  C 439.17 1212.50 440.67 1212.10 441.88 1210.11
  C 449.59 1197.40 457.03 1183.92 464.32 1171.64
  C 472.71 1157.52 481.16 1142.48 488.99 1129.06
  Q 519.23 1077.21 549.36 1025.30
  Q 605.50 928.57 661.68 831.87
  Q 668.43 820.24 675.17 808.60
  Q 696.35 772.03 717.41 735.38
  Q 718.75 733.04 720.84 729.72
  Q 722.66 726.82 724.26 724.08
  Z"
/>
</svg>
