<?xml version="1.0" encoding="UTF-8" standalone="no"?>
<!DOCTYPE svg PUBLIC "-//W3C//DTD SVG 1.1//EN" "http://www.w3.org/Graphics/SVG/1.1/DTD/svg11.dtd">
<svg xmlns="http://www.w3.org/2000/svg" version="1.1" viewBox="0.00 0.00 1448.00 1448.00">
<g stroke-width="2.00" fill="none" stroke-linecap="butt">
<path stroke="#87dc2b" vector-effect="non-scaling-stroke" d="
  M 439.89 233.04
  Q 441.48 237.54 444.05 241.66
  Q 447.10 246.55 447.11 246.58
  Q 582.39 479.70 717.67 712.82
  Q 720.97 718.51 724.46 724.02"
/>
<path stroke="#7bd50a" vector-effect="non-scaling-stroke" d="
  M 724.46 724.02
  Q 723.54 726.07 721.07 729.56
  Q 716.24 736.39 706.43 754.42
  Q 702.37 761.88 697.84 769.47
  C 692.27 778.81 687.04 788.25 681.42 797.65
  Q 677.50 804.21 673.72 810.86
  C 666.60 823.36 659.56 835.16 652.79 847.48
  C 651.90 849.10 650.64 850.75 649.66 852.45
  Q 606.17 927.77 562.26 1002.84
  Q 559.89 1006.88 556.05 1013.87
  Q 552.99 1019.42 549.79 1024.88
  Q 529.66 1059.15 509.81 1093.59
  C 501.31 1108.34 493.23 1122.10 484.97 1136.36
  Q 477.29 1149.63 469.60 1162.89
  Q 467.85 1165.92 465.99 1168.88
  C 458.71 1180.45 452.24 1192.69 445.37 1204.52
  C 444.18 1206.56 441.56 1210.68 439.24 1211.31
  Q 438.75 1211.44 438.77 1211.94
  Q 438.91 1215.07 442.51 1214.84
  Q 450.73 1214.31 459.82 1215.93"
/>
<path stroke="#8ee121" vector-effect="non-scaling-stroke" d="
  M 1294.20 724.43
  Q 1288.53 724.01 1279.75 724.01
  Q 1002.11 723.98 724.46 724.02"
/>
</g>
<path fill="#74d014" d="
  M 439.89 233.04
  Q 441.48 237.54 444.05 241.66
  Q 447.10 246.55 447.11 246.58
  Q 582.39 479.70 717.67 712.82
  Q 720.97 718.51 724.46 724.02
  Q 723.54 726.07 721.07 729.56
  Q 716.24 736.39 706.43 754.42
  Q 702.37 761.88 697.84 769.47
  C 692.27 778.81 687.04 788.25 681.42 797.65
  Q 677.50 804.21 673.72 810.86
  C 666.60 823.36 659.56 835.16 652.79 847.48
  C 651.90 849.10 650.64 850.75 649.66 852.45
  Q 606.17 927.77 562.26 1002.84
  Q 559.89 1006.88 556.05 1013.87
  Q 552.99 1019.42 549.79 1024.88
  Q 529.66 1059.15 509.81 1093.59
  C 501.31 1108.34 493.23 1122.10 484.97 1136.36
  Q 477.29 1149.63 469.60 1162.89
  Q 467.85 1165.92 465.99 1168.88
  C 458.71 1180.45 452.24 1192.69 445.37 1204.52
  C 444.18 1206.56 441.56 1210.68 439.24 1211.31
  Q 438.75 1211.44 438.77 1211.94
  Q 438.91 1215.07 442.51 1214.84
  Q 450.73 1214.31 459.82 1215.93
  Q 451.37 1215.98 443.00 1215.87
  C 439.32 1215.82 437.96 1214.70 436.07 1211.48
  C 423.12 1189.36 410.59 1167.00 397.56 1144.93
  C 388.51 1129.59 380.89 1115.61 370.55 1098.85
  C 369.23 1096.70 368.17 1093.81 367.01 1091.99
  Q 364.63 1088.25 359.91 1080.02
  Q 352.89 1067.78 327.34 1023.90
  C 314.45 1001.75 301.32 979.64 288.80 957.29
  C 281.98 945.10 274.72 933.34 267.88 921.27
  Q 257.91 903.66 247.36 886.40
  C 245.01 882.55 242.75 877.75 240.15 873.58
  Q 237.14 868.77 234.72 864.15
  C 232.47 859.85 229.51 855.35 227.41 851.58
  C 217.60 833.98 207.03 817.24 197.06 799.24
  Q 190.71 787.78 183.90 776.59
  C 180.58 771.12 177.02 763.80 172.95 757.72
  C 171.06 754.89 169.64 751.57 168.15 749.10
  Q 161.53 738.11 155.37 726.86
  C 154.05 724.46 154.24 722.51 155.57 720.32
  C 158.04 716.26 160.36 711.87 162.71 708.04
  Q 169.58 696.82 176.01 685.34
  C 180.90 676.61 186.92 667.31 191.18 659.23
  Q 195.16 651.71 197.65 647.48
  Q 207.07 631.48 216.55 615.51
  Q 221.83 606.60 226.80 597.50
  C 230.22 591.23 234.95 584.20 238.54 577.24
  C 241.29 571.92 244.74 566.24 247.91 560.93
  Q 257.15 545.43 266.05 529.73
  C 268.53 525.35 271.93 519.82 274.71 514.73
  C 277.87 508.95 281.60 503.09 284.86 497.14
  C 287.78 491.83 291.23 486.82 294.20 481.51
  C 301.57 468.36 309.23 455.27 316.93 442.30
  C 319.20 438.48 320.93 434.33 323.35 430.52
  Q 327.16 424.49 327.82 423.34
  C 349.75 385.13 371.81 346.94 394.20 309.00
  C 398.40 301.89 402.29 294.69 406.59 287.60
  Q 413.14 276.82 419.12 265.71
  C 420.95 262.32 423.38 258.90 425.36 255.37
  Q 431.07 245.21 436.86 235.10
  Q 437.68 233.67 439.89 233.04
  Z"
/>
<path fill="#9ae742" d="
  M 439.89 233.04
  Q 723.08 232.97 1006.00 233.00
  C 1008.36 233.00 1009.76 233.66 1011.08 235.74
  Q 1016.67 244.48 1021.87 253.43
  Q 1035.39 276.72 1048.74 300.10
  C 1059.19 318.40 1070.06 336.45 1080.53 354.74
  C 1085.29 363.07 1093.58 376.45 1099.47 387.72
  C 1100.54 389.77 1102.30 391.82 1103.21 393.53
  C 1105.95 398.68 1109.22 403.88 1111.28 407.51
  C 1129.62 439.68 1142.84 461.41 1157.34 487.23
  C 1158.68 489.61 1160.45 491.86 1161.67 494.10
  C 1167.92 505.52 1176.12 519.05 1181.20 527.89
  C 1191.58 545.97 1200.05 560.23 1208.16 574.13
  Q 1213.62 583.50 1218.96 592.95
  Q 1223.94 601.80 1228.97 610.27
  C 1239.51 628.04 1249.65 646.00 1260.17 663.76
  Q 1269.15 678.93 1277.83 694.28
  C 1282.47 702.48 1289.06 712.45 1293.48 721.26
  Q 1294.31 722.91 1294.20 724.43
  Q 1288.53 724.01 1279.75 724.01
  Q 1002.11 723.98 724.46 724.02
  Q 720.97 718.51 717.67 712.82
  Q 582.39 479.70 447.11 246.58
  Q 447.10 246.55 444.05 241.66
  Q 441.48 237.54 439.89 233.04
  Z"
/>
<path fill="#81da00" d="
  M 724.46 724.02
  Q 1002.11 723.98 1279.75 724.01
  Q 1288.53 724.01 1294.20 724.43
  Q 1294.09 725.97 1293.94 726.21
  Q 1288.59 734.93 1283.84 743.99
  C 1282.65 746.26 1280.85 748.62 1279.81 750.56
  C 1275.78 758.10 1270.99 765.85 1267.05 772.76
  C 1262.83 780.16 1258.07 787.24 1254.11 794.78
  Q 1252.84 797.20 1250.80 800.52
  C 1241.56 815.61 1229.37 838.01 1218.42 856.59
  Q 1205.42 878.65 1192.60 900.80
  Q 1186.37 911.55 1179.89 922.15
  C 1178.49 924.44 1176.96 927.88 1175.32 930.61
  C 1161.85 953.05 1149.02 975.85 1135.95 998.52
  Q 1135.69 998.99 1132.08 1004.59
  C 1130.31 1007.33 1128.97 1010.52 1127.44 1013.02
  Q 1123.99 1018.67 1120.58 1024.33
  C 1116.26 1031.51 1111.75 1040.17 1107.09 1047.98
  C 1099.74 1060.29 1092.69 1072.76 1085.28 1085.04
  C 1084.11 1086.97 1083.13 1089.31 1081.89 1091.40
  C 1069.75 1111.81 1058.12 1132.51 1045.95 1152.87
  C 1043.45 1157.05 1040.01 1164.02 1036.63 1169.39
  C 1032.35 1176.20 1028.53 1183.28 1024.19 1190.07
  C 1022.88 1192.13 1022.18 1194.51 1020.83 1196.52
  Q 1017.28 1201.77 1013.44 1209.43
  C 1011.56 1213.18 1009.13 1215.91 1004.50 1215.91
  Q 732.12 1215.98 459.82 1215.93
  Q 450.73 1214.31 442.51 1214.84
  Q 438.91 1215.07 438.77 1211.94
  Q 438.75 1211.44 439.24 1211.31
  C 441.56 1210.68 444.18 1206.56 445.37 1204.52
  C 452.24 1192.69 458.71 1180.45 465.99 1168.88
  Q 467.85 1165.92 469.60 1162.89
  Q 477.29 1149.63 484.97 1136.36
  C 493.23 1122.10 501.31 1108.34 509.81 1093.59
  Q 529.66 1059.15 549.79 1024.88
  Q 552.99 1019.42 556.05 1013.87
  Q 559.89 1006.88 562.26 1002.84
  Q 606.17 927.77 649.66 852.45
  C 650.64 850.75 651.90 849.10 652.79 847.48
  C 659.56 835.16 666.60 823.36 673.72 810.86
  Q 677.50 804.21 681.42 797.65
  C 687.04 788.25 692.27 778.81 697.84 769.47
  Q 702.37 761.88 706.43 754.42
  Q 716.24 736.39 721.07 729.56
  Q 723.54 726.07 724.46 724.02
  Z"
/>
</svg>
